<?xml version="1.0" encoding="UTF-8" standalone="no"?>
<!-- Created with Inkscape (http://www.inkscape.org/) -->

<svg
   xmlns:dc="http://purl.org/dc/elements/1.1/"
   xmlns:cc="http://creativecommons.org/ns#"
   xmlns:rdf="http://www.w3.org/1999/02/22-rdf-syntax-ns#"
   xmlns:svg="http://www.w3.org/2000/svg"
   xmlns="http://www.w3.org/2000/svg"
   xmlns:sodipodi="http://sodipodi.sourceforge.net/DTD/sodipodi-0.dtd"
   xmlns:inkscape="http://www.inkscape.org/namespaces/inkscape"
   width="156.9938"
   height="98.77948"
   viewBox="0 0 41.537944 26.135402"
   version="1.1"
   id="svg8"
   inkscape:version="0.92.2 (5c3e80d, 2017-08-06)"
   sodipodi:docname="alpha.svg"
   inkscape:export-filename="/home/frank/Wiki-O/docs/logos/logo.png"
   inkscape:export-xdpi="100"
   inkscape:export-ydpi="100">
  <defs
     id="defs2" />
  <sodipodi:namedview
     id="base"
     pagecolor="#ffffff"
     bordercolor="#666666"
     borderopacity="1.0"
     inkscape:pageopacity="0.0"
     inkscape:pageshadow="2"
     inkscape:zoom="2.8"
     inkscape:cx="116.9915"
     inkscape:cy="5.0915599"
     inkscape:document-units="mm"
     inkscape:current-layer="layer1"
     showgrid="false"
     inkscape:window-width="1301"
     inkscape:window-height="744"
     inkscape:window-x="65"
     inkscape:window-y="24"
     inkscape:window-maximized="1"
     fit-margin-top="0"
     fit-margin-left="0"
     fit-margin-right="0"
     fit-margin-bottom="0"
     units="px"
     inkscape:snap-to-guides="false"
     inkscape:snap-grids="false"
     inkscape:snap-nodes="false" />
  <metadata
     id="metadata5">
    <rdf:RDF>
      <cc:Work
         rdf:about="">
        <dc:format>image/svg+xml</dc:format>
        <dc:type
           rdf:resource="http://purl.org/dc/dcmitype/StillImage" />
        <dc:title></dc:title>
      </cc:Work>
    </rdf:RDF>
  </metadata>
  <g
     inkscape:label="Layer 1"
     inkscape:groupmode="layer"
     id="layer1"
     transform="translate(-44.640882,-117.15007)">
    <g
       id="g844"
       transform="translate(-0.26923368,0.18818341)">
      <g
         id="text817"
         style="font-style:normal;font-variant:normal;font-weight:normal;font-stretch:normal;font-size:17.2521553px;line-height:1.25;font-family:'Arial Black';-inkscape-font-specification:'Arial Black, ';letter-spacing:0px;word-spacing:0px;fill:#000000;fill-opacity:1;stroke:none;stroke-width:0.43130389"
         transform="matrix(0.62111084,0,0,1.6100186,0.37797619,0)"
         aria-label="WIKI-O">
        <path
           inkscape:connector-curvature="0"
           id="path818"
           style="font-style:normal;font-variant:normal;font-weight:normal;font-stretch:normal;font-family:'Arial Black';-inkscape-font-specification:'Arial Black, ';stroke-width:0.43130389"
           d="m 72.93563,73.29064 h 3.622278 l 1.305706,6.899177 1.903802,-6.899177 h 3.613855 l 1.912226,6.899177 1.305705,-6.899177 h 3.605431 l -2.720921,12.349443 h -3.740213 l -2.164944,-7.775263 -2.156519,7.775263 h -3.740214 z" />
        <path
           inkscape:connector-curvature="0"
           id="path820"
           style="font-style:normal;font-variant:normal;font-weight:normal;font-stretch:normal;font-family:'Arial Black';-inkscape-font-specification:'Arial Black, ';stroke-width:0.43130389"
           d="m 91.611425,73.29064 h 3.824452 v 12.349443 h -3.824452 z" />
        <path
           inkscape:connector-curvature="0"
           id="path822"
           style="font-style:normal;font-variant:normal;font-weight:normal;font-stretch:normal;font-family:'Arial Black';-inkscape-font-specification:'Arial Black, ';stroke-width:0.43130389"
           d="m 98.18207,73.29064 h 3.81603 v 4.666843 l 4.00135,-4.666843 h 5.07119 l -4.49836,4.658419 4.70054,7.691024 h -4.70054 l -2.60299,-5.079614 -1.97119,2.063857 v 3.015757 h -3.81603 z" />
        <path
           inkscape:connector-curvature="0"
           id="path824"
           style="font-style:normal;font-variant:normal;font-weight:normal;font-stretch:normal;font-family:'Arial Black';-inkscape-font-specification:'Arial Black, ';stroke-width:0.43130389"
           d="m 112.70488,73.29064 h 3.82445 v 12.349443 h -3.82445 z" />
        <path
           inkscape:connector-curvature="0"
           id="path826"
           style="font-style:normal;font-variant:normal;font-weight:normal;font-stretch:normal;font-family:'Arial Black';-inkscape-font-specification:'Arial Black, ';stroke-width:0.43130389"
           d="m 118.37417,79.810742 h 4.98695 v 2.65353 h -4.98695 z" />
        <path
           inkscape:connector-curvature="0"
           id="path828"
           style="fill:#ff0000;fill-opacity:1"
           d="m 124.54046,79.473786 q 0,-3.024182 1.68479,-4.708963 1.68478,-1.68478 4.69211,-1.68478 3.08315,0 4.75108,1.659509 1.66794,1.651085 1.66794,4.633147 0,2.164943 -0.73288,3.554887 -0.72446,1.38152 -2.10598,2.15652 -1.3731,0.766575 -3.42853,0.766575 -2.08913,0 -3.46222,-0.665489 -1.36468,-0.665488 -2.21549,-2.105975 -0.85082,-1.440488 -0.85082,-3.605431 z m 3.81603,0.01685 q 0,1.870107 0.69076,2.687226 0.69919,0.817118 1.89538,0.817118 1.22989,0 1.9038,-0.80027 0.67392,-0.800271 0.67392,-2.872552 0,-1.743748 -0.70761,-2.544019 -0.69919,-0.808694 -1.9038,-0.808694 -1.15408,0 -1.85326,0.817118 -0.69919,0.817119 -0.69919,2.704073 z" />
      </g>
      <rect
         y="138.98772"
         x="45.679089"
         height="3.4112349"
         width="40"
         id="rect4537-1"
         style="fill:#000000;fill-opacity:1;stroke:none;stroke-width:13.05992889;stroke-miterlimit:4;stroke-dasharray:none;stroke-dashoffset:0;stroke-opacity:1" />
      <g
         id="text4510"
         style="font-style:normal;font-variant:normal;font-weight:bold;font-stretch:normal;font-size:5.61150646px;line-height:1.25;font-family:Courier;-inkscape-font-specification:'Courier Bold';text-align:end;letter-spacing:0px;word-spacing:0px;text-anchor:end;fill:#ffffff;fill-opacity:1;stroke:none;stroke-width:0.14028768"
         transform="matrix(1.1217692,0,0,0.89144897,0.37797619,0)"
         aria-label="v0.0.0">
        <path
           inkscape:connector-curvature="0"
           id="path831"
           style="font-style:normal;font-variant:normal;font-weight:bold;font-stretch:normal;font-size:3.67026496px;font-family:Arial;-inkscape-font-specification:'Arial Bold';text-align:end;text-anchor:end;fill:#ffffff;fill-opacity:1;stroke-width:0.14028768"
           d="m 66.30425,159.08829 -0.767028,-1.90324 h 0.528676 l 0.358424,0.97133 0.103943,0.32438 q 0.04122,-0.12366 0.05197,-0.16308 0.02509,-0.0806 0.05376,-0.1613 l 0.362008,-0.97133 h 0.517923 l -0.756275,1.90324 z" />
        <path
           inkscape:connector-curvature="0"
           id="path833"
           style="font-style:normal;font-variant:normal;font-weight:bold;font-stretch:normal;font-size:3.67026496px;font-family:Arial;-inkscape-font-specification:'Arial Bold';text-align:end;text-anchor:end;fill:#ffffff;fill-opacity:1;stroke-width:0.14028768"
           d="m 68.5677,156.45028 q 0.381722,0 0.596776,0.27241 0.256274,0.32258 0.256274,1.06989 0,0.74553 -0.258066,1.07169 -0.213262,0.26882 -0.594984,0.26882 -0.383514,0 -0.618282,-0.29391 -0.234768,-0.2957 -0.234768,-1.05197 0,-0.74194 0.258065,-1.06811 0.213263,-0.26882 0.594985,-0.26882 z m 0,0.41757 q -0.0914,0 -0.163083,0.0591 -0.07169,0.0574 -0.111112,0.20788 -0.05197,0.19535 -0.05197,0.65771 0,0.46237 0.04659,0.63621 0.04659,0.17204 0.116488,0.22939 0.07169,0.0574 0.163083,0.0574 0.0914,0 0.163083,-0.0574 0.07169,-0.0591 0.111111,-0.20968 0.05197,-0.19355 0.05197,-0.65592 0,-0.46236 -0.04659,-0.63441 -0.0466,-0.17383 -0.11828,-0.23118 -0.06989,-0.0591 -0.161291,-0.0591 z" />
        <path
           inkscape:connector-curvature="0"
           id="path835"
           style="font-style:normal;font-variant:normal;font-weight:bold;font-stretch:normal;font-size:3.67026496px;font-family:Arial;-inkscape-font-specification:'Arial Bold';text-align:end;text-anchor:end;fill:#ffffff;fill-opacity:1;stroke-width:0.14028768"
           d="m 69.866988,159.08829 v -0.50359 h 0.503586 v 0.50359 z" />
        <path
           inkscape:connector-curvature="0"
           id="path837"
           style="font-style:normal;font-variant:normal;font-weight:bold;font-stretch:normal;font-size:3.67026496px;font-family:Arial;-inkscape-font-specification:'Arial Bold';text-align:end;text-anchor:end;fill:#ffffff;fill-opacity:1;stroke-width:0.14028768"
           d="m 71.628643,156.45028 q 0.381722,0 0.596777,0.27241 0.256273,0.32258 0.256273,1.06989 0,0.74553 -0.258065,1.07169 -0.213263,0.26882 -0.594985,0.26882 -0.383514,0 -0.618282,-0.29391 -0.234768,-0.2957 -0.234768,-1.05197 0,-0.74194 0.258066,-1.06811 0.213262,-0.26882 0.594984,-0.26882 z m 0,0.41757 q -0.0914,0 -0.163083,0.0591 -0.07169,0.0574 -0.111111,0.20788 -0.05197,0.19535 -0.05197,0.65771 0,0.46237 0.0466,0.63621 0.04659,0.17204 0.116488,0.22939 0.07169,0.0574 0.163083,0.0574 0.0914,0 0.163083,-0.0574 0.07169,-0.0591 0.111112,-0.20968 0.05197,-0.19355 0.05197,-0.65592 0,-0.46236 -0.04659,-0.63441 -0.04659,-0.17383 -0.11828,-0.23118 -0.06989,-0.0591 -0.161291,-0.0591 z" />
        <path
           inkscape:connector-curvature="0"
           id="path839"
           style="font-style:normal;font-variant:normal;font-weight:bold;font-stretch:normal;font-size:3.67026496px;font-family:Arial;-inkscape-font-specification:'Arial Bold';text-align:end;text-anchor:end;fill:#ffffff;fill-opacity:1;stroke-width:0.14028768"
           d="m 72.927932,159.08829 v -0.50359 h 0.503586 v 0.50359 z" />
        <path
           inkscape:connector-curvature="0"
           id="path841"
           style="font-style:normal;font-variant:normal;font-weight:bold;font-stretch:normal;font-size:3.67026496px;font-family:Arial;-inkscape-font-specification:'Arial Bold';text-align:end;text-anchor:end;fill:#ffffff;fill-opacity:1;stroke-width:0.14028768"
           d="m 74.689587,156.45028 q 0.381722,0 0.596776,0.27241 0.256274,0.32258 0.256274,1.06989 0,0.74553 -0.258066,1.07169 -0.213262,0.26882 -0.594984,0.26882 -0.383514,0 -0.618282,-0.29391 -0.234768,-0.2957 -0.234768,-1.05197 0,-0.74194 0.258065,-1.06811 0.213263,-0.26882 0.594985,-0.26882 z m 0,0.41757 q -0.0914,0 -0.163083,0.0591 -0.07169,0.0574 -0.111112,0.20788 -0.05197,0.19535 -0.05197,0.65771 0,0.46237 0.04659,0.63621 0.04659,0.17204 0.116488,0.22939 0.07169,0.0574 0.163083,0.0574 0.0914,0 0.163083,-0.0574 0.07169,-0.0591 0.111111,-0.20968 0.05197,-0.19355 0.05197,-0.65592 0,-0.46236 -0.0466,-0.63441 -0.04659,-0.17383 -0.11828,-0.23118 -0.06989,-0.0591 -0.161291,-0.0591 z" />
      </g>
    </g>
  </g>
</svg>
