<?xml version="1.0" encoding="UTF-8" standalone="no"?>
<!-- Generator: Adobe Illustrator 19.0.0, SVG Export Plug-In . SVG Version: 6.00 Build 0)  -->

<svg
   xmlns:dc="http://purl.org/dc/elements/1.1/"
   xmlns:cc="http://creativecommons.org/ns#"
   xmlns:rdf="http://www.w3.org/1999/02/22-rdf-syntax-ns#"
   xmlns:svg="http://www.w3.org/2000/svg"
   xmlns="http://www.w3.org/2000/svg"
   xmlns:sodipodi="http://sodipodi.sourceforge.net/DTD/sodipodi-0.dtd"
   xmlns:inkscape="http://www.inkscape.org/namespaces/inkscape"
   version="1.1"
   id="Layer_1"
   x="0px"
   y="0px"
   viewBox="0 0 59.947529 60.111263"
   xml:space="preserve"
   sodipodi:docname="link.svg"
   width="59.947529"
   height="60.111263"
   inkscape:version="0.92.2 (5c3e80d, 2017-08-06)"
   inkscape:export-filename="/home/frank/Wiki-O/docs/logos/link.png"
   inkscape:export-xdpi="100"
   inkscape:export-ydpi="100"><metadata
     id="metadata11"><rdf:RDF><cc:Work
         rdf:about=""><dc:format>image/svg+xml</dc:format><dc:type
           rdf:resource="http://purl.org/dc/dcmitype/StillImage" /><dc:title></dc:title></cc:Work></rdf:RDF></metadata><defs
     id="defs9" /><sodipodi:namedview
     pagecolor="#ffffff"
     bordercolor="#666666"
     borderopacity="1"
     objecttolerance="10"
     gridtolerance="10"
     guidetolerance="10"
     inkscape:pageopacity="0"
     inkscape:pageshadow="2"
     inkscape:window-width="1301"
     inkscape:window-height="744"
     id="namedview7"
     showgrid="false"
     fit-margin-top="0"
     fit-margin-left="0"
     fit-margin-right="0"
     fit-margin-bottom="0"
     inkscape:zoom="1.4142136"
     inkscape:cx="-3.5907735"
     inkscape:cy="-104.44961"
     inkscape:window-x="65"
     inkscape:window-y="24"
     inkscape:window-maximized="1"
     inkscape:current-layer="Layer_1" /><style
     type="text/css"
     id="style2">
	.st0{fill:#333333;}
</style><path
     style="fill:#0000ff;fill-opacity:1"
     inkscape:connector-curvature="0"
     d="m 39.973765,0.0375 c -2,0.2 -4.2,1.2 -5.9,2.9 l -6.8,6.7 c -3.4,3.4 -4.3,8.8 -1.5,11.6 l 0.7,0.7 12.3,-12.4 c 0.8,-0.8 2,-0.8 2.8,-0.1 l 8.8,8.8 c 0.8,0.8 0.8,2 -0.1,2.8 l -12.3,12.4 0.7,0.7 c 2.8,2.8 8.1,2 11.6,-1.5 l 6.7,-6.8 c 3.4,-3.4 4,-8.5 1.2,-11.3 l -12.8,-12.7 c -1.4,-1.4 -3.4,-2 -5.4,-1.8 z m -4.3,18.7 c -0.8,0 -1.6,0.3 -2.3,0.9 l -13.7,13.8 c -1.3,1.3 -1.3,3.3 0,4.6 l 2.3,2.3 c 1.3,1.3 3.3,1.3 4.6,0 l 13.8,-13.8 c 1.3,-1.3 1.3,-3.3 0,-4.6 l -2.4,-2.2 c -0.6,-0.7 -1.4,-1 -2.3,-1 z m -18.4,5.5 c -2.5,-0.1 -5.5,1 -7.6000001,3.1 l -6.7,6.8 c -3.39999999,3.4 -4,8.5 -1.2,11.3 l 12.9000001,12.9 c 2.8,2.8 7.8,2.2 11.3,-1.2 l 6.8,-6.7 c 3.4,-3.4 4.3,-8.8 1.5,-11.6 l -0.9,-0.8 -12.3,12.4 c -0.8,0.8 -2,0.8 -2.8,0 l -8.8000001,-8.8 c -0.8,-0.8 -0.8,-2 0,-2.8 l 12.5000001,-12.2 -0.7,-0.7 c -1.1,-1.1 -2.4,-1.6 -4,-1.7 z"
     class="st0"
     id="XMLID_7_"
     inkscape:export-xdpi="100"
     inkscape:export-ydpi="100" /></svg>
