<?xml version="1.0" encoding="UTF-8" standalone="no"?>
<!-- Created with Inkscape (http://www.inkscape.org/) -->

<svg
   xmlns:dc="http://purl.org/dc/elements/1.1/"
   xmlns:cc="http://creativecommons.org/ns#"
   xmlns:rdf="http://www.w3.org/1999/02/22-rdf-syntax-ns#"
   xmlns:svg="http://www.w3.org/2000/svg"
   xmlns="http://www.w3.org/2000/svg"
   xmlns:sodipodi="http://sodipodi.sourceforge.net/DTD/sodipodi-0.dtd"
   xmlns:inkscape="http://www.inkscape.org/namespaces/inkscape"
   width="145.90755"
   height="74.999985"
   viewBox="0 0 38.604706 19.843745"
   version="1.1"
   id="svg8"
   inkscape:version="0.92.2 (5c3e80d, 2017-08-06)"
   sodipodi:docname="logo.svg"
   inkscape:export-filename="/home/frank/Wiki-O/docs/logos/logo.png"
   inkscape:export-xdpi="100"
   inkscape:export-ydpi="100">
  <defs
     id="defs2" />
  <sodipodi:namedview
     id="base"
     pagecolor="#ffffff"
     bordercolor="#666666"
     borderopacity="1.0"
     inkscape:pageopacity="0.0"
     inkscape:pageshadow="2"
     inkscape:zoom="0.9899495"
     inkscape:cx="272.62238"
     inkscape:cy="-59.057521"
     inkscape:document-units="mm"
     inkscape:current-layer="g851"
     showgrid="false"
     inkscape:window-width="1301"
     inkscape:window-height="744"
     inkscape:window-x="65"
     inkscape:window-y="24"
     inkscape:window-maximized="1"
     fit-margin-top="0"
     fit-margin-left="0"
     fit-margin-right="0"
     fit-margin-bottom="0"
     units="px"
     inkscape:snap-nodes="false" />
  <metadata
     id="metadata5">
    <rdf:RDF>
      <cc:Work
         rdf:about="">
        <dc:format>image/svg+xml</dc:format>
        <dc:type
           rdf:resource="http://purl.org/dc/dcmitype/StillImage" />
        <dc:title></dc:title>
      </cc:Work>
    </rdf:RDF>
  </metadata>
  <g
     inkscape:label="Layer 1"
     inkscape:groupmode="layer"
     id="layer1"
     transform="translate(-44.56769,-118.45473)">
    <g
       id="g829"
       transform="matrix(2.8577297,0,0,2.8577297,-82.847354,-256.36896)">
      <g
         aria-label="WIKI-O"
         transform="scale(0.62111084,1.6100186)"
         style="font-style:normal;font-variant:normal;font-weight:normal;font-stretch:normal;font-size:5.82642889px;line-height:1.25;font-family:'Arial Black';-inkscape-font-specification:'Arial Black, ';letter-spacing:0px;word-spacing:0px;fill:#000000;fill-opacity:1;stroke:none;stroke-width:0.14566071"
         id="text817" />
      <g
         id="g851"
         transform="translate(-0.00991319,0.10402292)">
        <path
           id="path820"
           style="font-style:normal;font-variant:normal;font-weight:normal;font-stretch:normal;font-size:5.82642889px;line-height:1.25;font-family:'Arial Black';-inkscape-font-specification:'Arial Black, ';letter-spacing:0px;word-spacing:0px;fill:#000000;fill-opacity:1;stroke:none;stroke-width:0.14566071"
           d="m 71.800423,81.472253 h 1.223323 l 0.440965,2.330002 0.642956,-2.330002 h 1.220477 l 0.645801,2.330002 0.440965,-2.330002 h 1.217632 l -0.918914,4.170676 h -1.263152 l -0.731148,-2.625876 -0.728304,2.625876 h -1.263151 z"
           transform="matrix(0.62111084,0,0,1.6100186,-1.8225422e-7,-3.3534779e-6)"
           inkscape:connector-curvature="0" />
        <path
           id="path822"
           style="font-style:normal;font-variant:normal;font-weight:normal;font-stretch:normal;font-size:5.82642889px;line-height:1.25;font-family:'Arial Black';-inkscape-font-specification:'Arial Black, ';letter-spacing:0px;word-spacing:0px;fill:#000000;fill-opacity:1;stroke:none;stroke-width:0.14566071"
           d="m 78.107647,81.472253 h 1.291601 v 4.170676 h -1.291601 z"
           transform="matrix(0.62111084,0,0,1.6100186,-1.8225422e-7,-3.3534779e-6)"
           inkscape:connector-curvature="0" />
        <path
           id="path824"
           style="font-style:normal;font-variant:normal;font-weight:normal;font-stretch:normal;font-size:5.82642889px;line-height:1.25;font-family:'Arial Black';-inkscape-font-specification:'Arial Black, ';letter-spacing:0px;word-spacing:0px;fill:#000000;fill-opacity:1;stroke:none;stroke-width:0.14566071"
           d="m 80.326696,81.472253 h 1.288756 v 1.576094 l 1.351345,-1.576094 h 1.712651 l -1.519195,1.57325 1.587474,2.597426 h -1.587474 l -0.879086,-1.715496 -0.665715,0.697009 v 1.018487 h -1.288756 z"
           transform="matrix(0.62111084,0,0,1.6100186,-1.8225422e-7,-3.3534779e-6)"
           inkscape:connector-curvature="0" />
        <path
           id="path826"
           style="font-style:normal;font-variant:normal;font-weight:normal;font-stretch:normal;font-size:5.82642889px;line-height:1.25;font-family:'Arial Black';-inkscape-font-specification:'Arial Black, ';letter-spacing:0px;word-spacing:0px;fill:#000000;fill-opacity:1;stroke:none;stroke-width:0.14566071"
           d="m 85.231366,81.472253 h 1.291601 v 4.170676 h -1.291601 z"
           transform="matrix(0.62111084,0,0,1.6100186,-1.8225422e-7,-3.3534779e-6)"
           inkscape:connector-curvature="0" />
        <path
           id="path828"
           style="font-style:normal;font-variant:normal;font-weight:normal;font-stretch:normal;font-size:5.82642889px;line-height:1.25;font-family:'Arial Black';-inkscape-font-specification:'Arial Black, ';letter-spacing:0px;word-spacing:0px;fill:#000000;fill-opacity:1;stroke:none;stroke-width:0.14566071"
           d="m 87.146008,83.674233 h 1.684203 v 0.896155 h -1.684203 z"
           transform="matrix(0.62111084,0,0,1.6100186,-1.8225422e-7,-3.3534779e-6)"
           inkscape:connector-curvature="0" />
        <path
           id="path830"
           style="font-style:normal;font-variant:normal;font-weight:normal;font-stretch:normal;font-size:5.82642889px;line-height:1.25;font-family:'Arial Black';-inkscape-font-specification:'Arial Black, ';letter-spacing:0px;word-spacing:0px;fill:#ff0000;fill-opacity:1;stroke:none;stroke-width:0.14566071"
           d="m 89.228502,83.560436 q 0,-1.021332 0.568987,-1.590319 0.568987,-0.568987 1.584629,-0.568987 1.041247,0 1.604544,0.560452 0.563297,0.557607 0.563297,1.564715 0,0.731148 -0.247509,1.200563 -0.244665,0.466569 -0.711234,0.728303 -0.463725,0.258889 -1.157889,0.258889 -0.705544,0 -1.169269,-0.224749 -0.460879,-0.22475 -0.748218,-0.711234 -0.287338,-0.486485 -0.287338,-1.217633 z m 1.288756,0.0057 q 0,0.631576 0.233284,0.907534 0.23613,0.275959 0.640111,0.275959 0.415361,0 0.642955,-0.270269 0.227595,-0.270269 0.227595,-0.970123 0,-0.588902 -0.238974,-0.859171 -0.23613,-0.273113 -0.642956,-0.273113 -0.389756,0 -0.625886,0.275958 -0.236129,0.275959 -0.236129,0.913225 z"
           transform="matrix(0.62111084,0,0,1.6100186,-1.8225422e-7,-3.3534779e-6)"
           inkscape:connector-curvature="0" />
      </g>
    </g>
  </g>
</svg>
